<svg width="40" height="40" viewBox="0 0 40 40" fill="none" xmlns="http://www.w3.org/2000/svg">
<path d="M8.78258 3.62959C9.00238 3.62959 9.18057 3.80778 9.18057 4.02758V8.28336C9.18057 8.50316 9.00238 8.68134 8.78258 8.68134C8.56278 8.68134 8.3846 8.50316 8.3846 8.28336V4.02758C8.3846 3.80778 8.56278 3.62959 8.78258 3.62959Z" fill="#1C1E4C"/>
<path d="M10.8314 7.47305C10.7531 7.26765 10.5232 7.16458 10.3178 7.24282C10.1124 7.32107 10.0093 7.55101 10.0875 7.75641C10.1592 7.94455 10.1994 8.12958 10.1994 8.31516C10.1994 9.09449 9.56953 9.732 8.78262 9.732C8.0033 9.732 7.3658 9.10207 7.3658 8.31516C7.3658 8.11742 7.40665 7.93957 7.47933 7.77805C7.56953 7.57761 7.48016 7.342 7.27972 7.2518C7.07928 7.16161 6.84367 7.25097 6.75347 7.45142C6.63512 7.71441 6.56984 8.00348 6.56984 8.31516C6.56984 9.54469 7.56672 10.528 8.78262 10.528C10.0122 10.528 10.9954 9.53104 10.9954 8.31516C10.9954 8.01254 10.9295 7.73066 10.8314 7.47305Z" fill="#1C1E4C"/>
<path d="M11.9079 17.9623C11.9079 17.7425 11.7297 17.5643 11.5099 17.5643C11.2901 17.5643 11.1119 17.7425 11.1119 17.9623V21.9421C11.1119 22.1619 11.2901 22.3401 11.5099 22.3401C11.7297 22.3401 11.9079 22.1619 11.9079 21.9421V17.9623Z" fill="#1C1E4C"/>
<path d="M23.2318 17.9623C23.2318 17.7425 23.0536 17.5643 22.8338 17.5643C22.614 17.5643 22.4358 17.7425 22.4358 17.9623V21.9421C22.4358 22.1619 22.614 22.3401 22.8338 22.3401C23.0536 22.3401 23.2318 22.1619 23.2318 21.9421V17.9623Z" fill="#1C1E4C"/>
<path d="M28.4905 17.5643C28.7103 17.5643 28.8885 17.7425 28.8885 17.9623V21.9421C28.8885 22.1619 28.7103 22.3401 28.4905 22.3401C28.2707 22.3401 28.0926 22.1619 28.0926 21.9421V17.9623C28.0926 17.7425 28.2707 17.5643 28.4905 17.5643Z" fill="#1C1E4C"/>
<path d="M11.9079 27.7156C11.9079 27.4958 11.7297 27.3176 11.5099 27.3176C11.2901 27.3176 11.1119 27.4958 11.1119 27.7156V31.6954C11.1119 31.9152 11.2901 32.0934 11.5099 32.0934C11.7297 32.0934 11.9079 31.9152 11.9079 31.6954V27.7156Z" fill="#1C1E4C"/>
<path d="M17.1667 27.3176C17.3865 27.3176 17.5646 27.4958 17.5646 27.7156V31.6954C17.5646 31.9152 17.3865 32.0934 17.1667 32.0934C16.9469 32.0934 16.7687 31.9152 16.7687 31.6954V27.7156C16.7687 27.4958 16.9469 27.3176 17.1667 27.3176Z" fill="#1C1E4C"/>
<path d="M23.2318 27.7156C23.2318 27.4958 23.0536 27.3176 22.8338 27.3176C22.614 27.3176 22.4358 27.4958 22.4358 27.7156V31.6954C22.4358 31.9152 22.614 32.0934 22.8338 32.0934C23.0536 32.0934 23.2318 31.9152 23.2318 31.6954V27.7156Z" fill="#1C1E4C"/>
<path d="M28.4905 27.3176C28.7103 27.3176 28.8885 27.4958 28.8885 27.7156V31.6954C28.8885 31.9152 28.7103 32.0934 28.4905 32.0934C28.2707 32.0934 28.0926 31.9152 28.0926 31.6954V27.7156C28.0926 27.4958 28.2707 27.3176 28.4905 27.3176Z" fill="#1C1E4C"/>
<path d="M8.31568 24.4627C8.09588 24.4627 7.9177 24.6409 7.9177 24.8607C7.9177 25.0805 8.09588 25.2587 8.31568 25.2587H31.6853C31.9051 25.2587 32.0833 25.0805 32.0833 24.8607C32.0833 24.6409 31.9051 24.4627 31.6853 24.4627H8.31568Z" fill="#1C1E4C"/>
<path fill-rule="evenodd" clip-rule="evenodd" d="M0 7.12652V34.0514C0 35.3325 1.03781 36.3704 2.31892 36.3704H37.6811C38.9622 36.3704 40 35.3325 40 34.0514V7.12652C40 5.84543 38.9622 4.80761 37.6811 4.80761H33.2237C33.0039 4.80761 32.8257 4.98579 32.8257 5.20559C32.8257 5.42539 33.0039 5.60358 33.2237 5.60358H37.6811C38.5226 5.60358 39.204 6.28504 39.204 7.12652V13.351H0.795967V7.12652C0.795967 6.28504 1.47743 5.60358 2.31892 5.60358H6.77633C6.99613 5.60358 7.17432 5.42539 7.17432 5.20559C7.17432 4.98579 6.99613 4.80761 6.77633 4.80761H2.31892C1.03783 4.80761 0 5.84543 0 7.12652ZM39.204 34.0514V14.147H0.795967V34.0514C0.795967 34.8929 1.47745 35.5744 2.31892 35.5744H37.6811C38.5225 35.5744 39.204 34.8929 39.204 34.0514Z" fill="#1C1E4C"/>
<path d="M29.913 7.75641C29.9912 7.55101 29.8881 7.32107 29.6827 7.24282C29.4773 7.16458 29.2474 7.26765 29.1692 7.47305C29.071 7.73066 29.0051 8.01254 29.0051 8.31516C29.0051 9.53104 29.9884 10.528 31.2179 10.528C32.4338 10.528 33.4307 9.54469 33.4307 8.31516C33.4307 8.00348 33.3654 7.71441 33.2471 7.45142C33.1569 7.25097 32.9212 7.16161 32.7208 7.2518C32.5204 7.342 32.431 7.57761 32.5212 7.77805C32.5939 7.93957 32.6347 8.11742 32.6347 8.31516C32.6347 9.10207 31.9972 9.732 31.2179 9.732C30.431 9.732 29.8011 9.09449 29.8011 8.31516C29.8011 8.12958 29.8413 7.94455 29.913 7.75641Z" fill="#1C1E4C"/>
<path d="M31.2179 3.62959C31.4377 3.62959 31.6158 3.80778 31.6158 4.02758V8.28336C31.6158 8.50316 31.4377 8.68134 31.2179 8.68134C30.9981 8.68134 30.8199 8.50316 30.8199 8.28336V4.02758C30.8199 3.80778 30.9981 3.62959 31.2179 3.62959Z" fill="#1C1E4C"/>
<path d="M10.788 4.80761C10.5682 4.80761 10.3901 4.98579 10.3901 5.20559C10.3901 5.42539 10.5682 5.60358 10.788 5.60358H29.2014C29.4212 5.60358 29.5994 5.42539 29.5994 5.20559C29.5994 4.98579 29.4212 4.80761 29.2014 4.80761H10.788Z" fill="#1C1E4C"/>
<path d="M21.8848 19.7871C21.8848 22.3927 19.7723 24.5052 17.1667 24.5052C14.561 24.5052 12.4487 22.3927 12.4487 19.7871C12.4487 17.1815 14.561 15.0691 17.1667 15.0691C19.7723 15.0691 21.8848 17.1815 21.8848 19.7871Z" fill="#959595"/>
<path d="M17.1666 17.5643C17.3864 17.5643 17.5646 17.7425 17.5646 17.9623V21.9422C17.5646 22.1619 17.3864 22.3401 17.1666 22.3401C16.9468 22.3401 16.7686 22.1619 16.7686 21.9422V17.9623C16.7686 17.7425 16.9468 17.5643 17.1666 17.5643Z" fill="#1C1E4C"/>
</svg>
