<svg width="44" height="40" viewBox="0 0 44 40" fill="none" xmlns="http://www.w3.org/2000/svg">
<path fill-rule="evenodd" clip-rule="evenodd" d="M17.1456 3.71272C17.1456 3.5621 17.2677 3.43999 17.4183 3.43999H20.9092C21.0599 3.43999 21.182 3.5621 21.182 3.71272C21.182 3.86334 21.0599 3.98545 20.9092 3.98545H17.4183C17.2677 3.98545 17.1456 3.86334 17.1456 3.71272Z" fill="#1C1E4C"/>
<path fill-rule="evenodd" clip-rule="evenodd" d="M7.46909 1.78181C6.40517 1.78181 5.54545 2.64152 5.54545 3.70544V36.2945C5.54545 37.3585 6.40517 38.2182 7.46909 38.2182H21.1709C21.3215 38.2182 21.4436 38.3403 21.4436 38.4909C21.4436 38.6415 21.3215 38.7636 21.1709 38.7636H7.46909C6.10392 38.7636 5 37.6597 5 36.2945V3.70544C5 2.34027 6.10392 1.23636 7.46909 1.23636H30.8582C32.2233 1.23636 33.3273 2.34027 33.3273 3.70544V14.1491C33.3273 14.2997 33.2052 14.4218 33.0545 14.4218C32.9039 14.4218 32.7818 14.2997 32.7818 14.1491V3.70544C32.7818 2.64152 31.9221 1.78181 30.8582 1.78181H7.46909Z" fill="#1C1E4C"/>
<path fill-rule="evenodd" clip-rule="evenodd" d="M17.1456 36.2873C17.1456 36.1367 17.2677 36.0145 17.4183 36.0145H20.9092C21.0599 36.0145 21.182 36.1367 21.182 36.2873C21.182 36.4379 21.0599 36.56 20.9092 36.56H17.4183C17.2677 36.56 17.1456 36.4379 17.1456 36.2873Z" fill="#1C1E4C"/>
<path fill-rule="evenodd" clip-rule="evenodd" d="M5 5.91636C5 5.76573 5.1221 5.64363 5.27273 5.64363H33.0545C33.2052 5.64363 33.3273 5.76573 33.3273 5.91636C33.3273 6.06698 33.2052 6.18908 33.0545 6.18908H5.27273C5.1221 6.18908 5 6.06698 5 5.91636Z" fill="#1C1E4C"/>
<path fill-rule="evenodd" clip-rule="evenodd" d="M5 34.0836C5 33.933 5.1221 33.8109 5.27273 33.8109H20.9091C21.0597 33.8109 21.1818 33.933 21.1818 34.0836C21.1818 34.2343 21.0597 34.3564 20.9091 34.3564H5.27273C5.1221 34.3564 5 34.2343 5 34.0836Z" fill="#1C1E4C"/>
<path d="M11.1419 12.7673H9.26557C8.73467 12.7673 8.30558 12.3382 8.30558 11.8073V9.93089C8.30558 9.39999 8.73467 8.97091 9.26557 8.97091H11.1419C11.6728 8.97091 12.1019 9.39999 12.1019 9.93089V11.8073C12.1019 12.3382 11.6728 12.7673 11.1419 12.7673Z" fill="#959595"/>
<path d="M17.0182 12.7673H15.1418C14.6109 12.7673 14.1818 12.3382 14.1818 11.8073V9.93089C14.1818 9.39999 14.6109 8.97091 15.1418 8.97091H17.0182C17.5491 8.97091 17.9782 9.39999 17.9782 9.93089V11.8073C17.9782 12.3382 17.5491 12.7673 17.0182 12.7673Z" fill="#959595"/>
<path d="M22.9019 12.7673H21.0255C20.4946 12.7673 20.0655 12.3382 20.0655 11.8073V9.93089C20.0655 9.39999 20.4946 8.97091 21.0255 8.97091H22.9019C23.4328 8.97091 23.8619 9.39999 23.8619 9.93089V11.8073C23.8619 12.3382 23.4328 12.7673 22.9019 12.7673Z" fill="#959595"/>
<path d="M11.1419 18.9055H9.26557C8.73467 18.9055 8.30558 18.4764 8.30558 17.9455V16.0691C8.30558 15.5382 8.73467 15.1091 9.26557 15.1091H11.1419C11.6728 15.1091 12.1019 15.5382 12.1019 16.0691V17.9455C12.1019 18.4764 11.6728 18.9055 11.1419 18.9055Z" fill="#959595"/>
<path d="M17.0182 18.9055H15.1418C14.6109 18.9055 14.1818 18.4764 14.1818 17.9455V16.0691C14.1818 15.5382 14.6109 15.1091 15.1418 15.1091H17.0182C17.5491 15.1091 17.9782 15.5382 17.9782 16.0691V17.9455C17.9782 18.4764 17.5491 18.9055 17.0182 18.9055Z" fill="#959595"/>
<path d="M11.1419 25.0364H9.26557C8.73467 25.0364 8.30558 24.6073 8.30558 24.0764V22.2C8.30558 21.6691 8.73467 21.24 9.26557 21.24H11.1419C11.6728 21.24 12.1019 21.6691 12.1019 22.2V24.0764C12.1019 24.6073 11.6728 25.0364 11.1419 25.0364Z" fill="#959595"/>
<path d="M17.0182 25.0364H15.1418C14.6109 25.0364 14.1818 24.6073 14.1818 24.0764V22.2C14.1818 21.6691 14.6109 21.24 15.1418 21.24H17.0182C17.5491 21.24 17.9782 21.6691 17.9782 22.2V24.0764C17.9782 24.6073 17.5491 25.0364 17.0182 25.0364Z" fill="#959595"/>
<path d="M26.1782 12.3091C26.1782 11.3657 26.9403 10.6036 27.8836 10.6036C28.827 10.6036 29.5891 11.3657 29.5891 12.3091V15.84H30.7491C31.4674 15.84 32.0806 16.2818 32.3323 16.9091H33.6145C34.5579 16.9091 35.32 17.6712 35.32 18.6145V18.7418H36.4801C37.4235 18.7418 38.1856 19.5039 38.1856 20.4473V22.6727C38.1856 22.7064 38.1795 22.7387 38.1683 22.7685C38.0875 25.4766 37.6332 28.1627 36.8052 30.7486C36.673 31.1596 36.5745 31.5264 36.5093 31.79C36.4767 31.9217 36.4524 32.0275 36.4364 32.0999C36.4284 32.1362 36.4224 32.164 36.4185 32.1827L36.4142 32.2035L36.4131 32.2085L36.4129 32.2097C36.3874 32.3371 36.2754 32.4291 36.1454 32.4291H29.9927C29.8421 32.4291 29.72 32.307 29.72 32.1563C29.72 32.0057 29.8421 31.8836 29.9927 31.8836H35.9261C35.9406 31.8204 35.9585 31.7449 35.9798 31.659C36.0473 31.3863 36.1489 31.0075 36.2857 30.5823C37.1067 28.0182 37.5535 25.3526 37.6255 22.6654C37.6263 22.637 37.6314 22.6097 37.6401 22.5842V20.4473C37.6401 19.8052 37.1222 19.2873 36.4801 19.2873H35.32V22.0836C35.32 22.2343 35.1979 22.3564 35.0473 22.3564C34.8966 22.3564 34.7745 22.2343 34.7745 22.0836V18.6145C34.7745 17.9724 34.2566 17.4545 33.6145 17.4545H32.4545V17.533L32.4546 17.5454L32.4545 17.5504V20.84C32.4545 20.9906 32.3324 21.1127 32.1818 21.1127C32.0312 21.1127 31.9091 20.9906 31.9091 20.84V17.5351C31.9036 16.8978 31.3878 16.3854 30.7491 16.3854H29.5891V19.7709C29.5891 19.9215 29.467 20.0436 29.3164 20.0436C29.1658 20.0436 29.0437 19.9215 29.0437 19.7709V16.1177L29.0436 16.1127V12.3091C29.0436 11.667 28.5257 11.1491 27.8836 11.1491C27.2415 11.1491 26.7236 11.667 26.7236 12.3091V22.9127C26.7236 23.0441 26.63 23.1568 26.5008 23.1808C26.3716 23.2049 26.2437 23.1334 26.1964 23.0108L25.2076 20.4443C24.993 19.8929 24.4672 19.5273 23.8764 19.5273C23.0903 19.5273 22.4545 20.1673 22.4545 20.9564C22.4545 22.625 22.8929 24.2708 23.7467 25.7035C24.0828 26.2612 24.4725 26.8271 24.9368 27.3407L24.938 27.342C25.8489 28.362 26.42 29.5545 26.7631 30.4847C26.9352 30.951 27.0511 31.3547 27.1241 31.6426C27.1607 31.7866 27.1866 31.9019 27.2034 31.9818C27.2119 32.0218 27.218 32.053 27.2222 32.0745L27.2269 32.0995L27.2281 32.1063L27.2285 32.1083L27.2286 32.1092C27.2286 32.1093 27.2286 32.1094 26.96 32.1563L27.2286 32.1092C27.2546 32.2576 27.1553 32.3991 27.007 32.425C26.8586 32.4509 26.7174 32.3517 26.6914 32.2034L26.6912 32.2025L26.6904 32.1978L26.6865 32.1774C26.683 32.159 26.6774 32.1311 26.6697 32.0944C26.6542 32.0211 26.63 31.913 26.5954 31.7767C26.5262 31.5039 26.4157 31.1189 26.2514 30.6735C25.9219 29.7802 25.3805 28.6566 24.5317 27.7059C24.0364 27.158 23.6265 26.5608 23.2791 25.9844L23.2785 25.9833C22.3725 24.4633 21.9091 22.7202 21.9091 20.9564C21.9091 19.8691 22.786 18.9818 23.8764 18.9818C24.6963 18.9818 25.4214 19.4891 25.716 20.2466L25.7163 20.2474L26.1782 21.4462V12.3091Z" fill="#1C1E4C"/>
<path fill-rule="evenodd" clip-rule="evenodd" d="M25.56 34.0836C25.56 33.933 25.6821 33.8109 25.8327 33.8109H36.9382C37.0888 33.8109 37.2109 33.933 37.2109 34.0836V38.4909C37.2109 38.6415 37.0888 38.7636 36.9382 38.7636H25.8327C25.6821 38.7636 25.56 38.6415 25.56 38.4909V34.0836ZM26.1055 34.3564V38.2182H36.6655V34.3564H26.1055Z" fill="#1C1E4C"/>
<path fill-rule="evenodd" clip-rule="evenodd" d="M33.9236 36.2873C33.9236 35.9839 34.1694 35.7382 34.4727 35.7382C34.7761 35.7382 35.0218 35.9839 35.0218 36.2873C35.0218 36.5906 34.7761 36.8364 34.4727 36.8364C34.1694 36.8364 33.9236 36.5906 33.9236 36.2873ZM34.4727 36.2836C34.4706 36.2836 34.4691 36.2852 34.4691 36.2873C34.4691 36.2894 34.4706 36.2909 34.4727 36.2909C34.4748 36.2909 34.4764 36.2894 34.4764 36.2873C34.4764 36.2852 34.4748 36.2836 34.4727 36.2836Z" fill="#1C1E4C"/>
</svg>
