<svg width="40" height="40" viewBox="0 0 40 40" fill="none" xmlns="http://www.w3.org/2000/svg">
<path d="M27.1188 4.25241H31.8018V8.92363L27.1188 4.25241Z" fill="#959595"/>
<path d="M8.19807 37.6821V33.0109L12.881 37.6821H8.19807Z" fill="#959595"/>
<path fill-rule="evenodd" clip-rule="evenodd" d="M6.11621 2.60099C6.11621 2.35669 6.31426 2.15864 6.55856 2.15864H15.0928C15.0928 2.44648 15.0928 2.38898 15.0928 2.63328C15.0928 2.87758 15.0928 2.78612 15.0928 3.04334H7.00091V39.1153H32.9992V3.04334H24.907C24.907 2.76032 24.907 2.85567 24.907 2.61137C24.907 2.36707 24.907 2.39765 24.907 2.15864H33.4415C33.6858 2.15864 33.8839 2.35669 33.8839 2.60099V39.5577C33.8839 39.802 33.6858 40 33.4415 40H6.55856C6.31426 40 6.11621 39.802 6.11621 39.5577V2.60099Z" fill="#1C1E4C"/>
<path fill-rule="evenodd" clip-rule="evenodd" d="M12.191 13.4415C12.191 13.1972 12.3891 12.9991 12.6334 12.9991H27.3665C27.6108 12.9991 27.8088 13.1972 27.8088 13.4415C27.8088 13.6858 27.6108 13.8838 27.3665 13.8838H12.6334C12.3891 13.8838 12.191 13.6858 12.191 13.4415Z" fill="#1C1E4C"/>
<path fill-rule="evenodd" clip-rule="evenodd" d="M12.191 18.5373C12.191 18.293 12.3891 18.0949 12.6334 18.0949H27.3665C27.6108 18.0949 27.8088 18.293 27.8088 18.5373C27.8088 18.7816 27.6108 18.9796 27.3665 18.9796H12.6334C12.3891 18.9796 12.191 18.7816 12.191 18.5373Z" fill="#1C1E4C"/>
<path fill-rule="evenodd" clip-rule="evenodd" d="M12.191 23.6214C12.191 23.3771 12.3891 23.1791 12.6334 23.1791H27.3665C27.6108 23.1791 27.8088 23.3771 27.8088 23.6214C27.8088 23.8657 27.6108 24.0637 27.3665 24.0637H12.6334C12.3891 24.0637 12.191 23.8657 12.191 23.6214Z" fill="#1C1E4C"/>
<path fill-rule="evenodd" clip-rule="evenodd" d="M12.191 28.7054C12.191 28.4611 12.3891 28.2631 12.6334 28.2631H27.3665C27.6108 28.2631 27.8088 28.4611 27.8088 28.7054C27.8088 28.9497 27.6108 29.1478 27.3665 29.1478H12.6334C12.3891 29.1478 12.191 28.9497 12.191 28.7054Z" fill="#1C1E4C"/>
<path fill-rule="evenodd" clip-rule="evenodd" d="M15.0928 1.04395C15.0928 0.469373 15.5621 0 16.1367 0H23.8512C24.432 0 24.907 0.4638 24.907 1.04395V5.64436C24.907 6.32513 24.355 6.87702 23.6743 6.87702C23.0672 6.87702 22.5319 6.42098 22.4567 5.80459L22.4453 5.71286C22.2965 4.56563 21.3167 3.70391 20.1591 3.70391C19.0016 3.70391 18.0219 4.56471 17.8731 5.71194L17.8616 5.80375C17.7864 6.4201 17.251 6.87702 16.6439 6.87702H16.3254C15.6447 6.87702 15.0928 6.32513 15.0928 5.64436V1.04395ZM16.1367 0.884696C16.0507 0.884696 15.9775 0.957959 15.9775 1.04395V5.64436C15.9775 5.83649 16.1333 5.99232 16.3254 5.99232H16.6439C16.815 5.99232 16.9637 5.859 16.9833 5.69729L16.9835 5.69569L16.9953 5.60131L16.9956 5.5994C17.201 4.01044 18.5567 2.81921 20.1591 2.81921C21.7615 2.81921 23.1172 4.01044 23.3227 5.5994L23.3229 5.60127L23.3349 5.69729C23.3545 5.859 23.5032 5.99232 23.6743 5.99232C23.8665 5.99232 24.0223 5.8365 24.0223 5.64436V1.04395C24.0223 0.963532 23.9546 0.884696 23.8512 0.884696H16.1367Z" fill="#1C1E4C"/>
</svg>
