<svg width="40" height="40" viewBox="0 0 40 40" fill="none" xmlns="http://www.w3.org/2000/svg">
<path fill-rule="evenodd" clip-rule="evenodd" d="M23.3313 18.7348C19.7134 16.9258 15.3142 18.3923 13.5052 22.0101C11.6963 25.628 13.1627 30.0272 16.7806 31.8362C20.3984 33.6451 24.7977 32.1787 26.6066 28.5608C28.4156 24.943 26.9491 20.5437 23.3313 18.7348ZM12.9029 21.709C14.8782 17.7584 19.6819 16.1572 23.6324 18.1324C27.5829 20.1077 29.1842 24.9115 27.209 28.862C25.2337 32.8125 20.4299 34.4138 16.4794 32.4385C12.5289 30.4633 10.9276 25.6595 12.9029 21.709Z" fill="#1C1E4C"/>
<path d="M0.20006 6.77157C0.315514 6.69498 0.466099 6.69692 0.579538 6.77647C2.83374 8.35721 5.32228 9.59229 7.94224 10.4438C8.19815 10.5262 8.45913 10.6063 8.72276 10.6872C9.55662 10.9432 10.4169 11.2073 11.2261 11.5751L11.2284 11.5762C12.3029 12.0743 13.3451 12.803 13.9801 13.8683L13.9812 13.87C14.3896 14.5643 14.5878 15.3201 14.7231 16.074L14.7233 16.0754C14.7916 16.4653 14.8399 16.8625 14.8782 17.2458C14.8967 17.4308 14.7617 17.5958 14.5767 17.6143C14.3916 17.6328 14.2266 17.4978 14.2081 17.3128C14.1707 16.9387 14.1244 16.5597 14.0601 16.1923C13.9303 15.4695 13.7498 14.8052 13.4011 14.2121C12.8621 13.3086 11.9543 12.6552 10.9463 12.1877C10.1807 11.8398 9.37931 11.5937 8.55577 11.3407C8.28462 11.2574 8.01107 11.1734 7.73561 11.0848C5.29329 10.2911 2.96085 9.17129 0.819684 7.75483C0.840798 8.08791 0.83489 8.41906 0.817127 8.74426C0.801377 9.03261 0.775997 9.32044 0.750894 9.60159L0.748151 9.6323C0.723877 9.90405 0.700182 10.1693 0.684552 10.4323C0.628735 11.5428 0.770167 12.6481 1.43624 13.3553C1.96901 13.9214 2.77487 14.1768 3.64249 14.4274C4.06239 14.5491 4.48241 14.6696 4.90171 14.7899C5.4905 14.9588 6.07836 15.1275 6.66434 15.2989C6.84283 15.3511 6.9452 15.5381 6.893 15.7166C6.8408 15.8951 6.65379 15.9975 6.4753 15.9453C5.88968 15.774 5.30593 15.6065 4.71935 15.4382C4.30003 15.3179 3.87926 15.1971 3.45533 15.0743C2.96224 14.9319 2.41482 14.7713 1.90933 14.5158C1.64273 15.1865 1.82558 16.0382 2.36674 16.503C2.61407 16.7157 2.91085 16.8567 3.24463 16.9714C3.2705 16.9727 3.29662 16.9771 3.32255 16.9848C3.35475 16.9943 3.38445 17.0082 3.4112 17.0257C3.57617 17.0769 3.74915 17.1239 3.92882 17.1717L3.93098 17.1722C4.4564 17.3155 4.98149 17.4575 5.50603 17.5994C6.22615 17.7941 6.94521 17.9885 7.6626 18.1857C7.84192 18.2349 7.94734 18.4202 7.89806 18.5996C7.84878 18.7789 7.66347 18.8843 7.48415 18.835C6.7669 18.6379 6.05131 18.4444 5.33312 18.2502C4.80895 18.1085 4.28341 17.9664 3.75482 17.8222C3.66167 17.7975 3.56612 17.7721 3.46912 17.745C3.37927 18.2548 3.43112 18.7557 3.68045 19.1422L3.68181 19.1443C3.93413 19.5419 4.38773 19.8102 4.90672 19.9686C5.26176 20.0769 5.60848 20.1337 5.9816 20.1949C6.17486 20.2265 6.3752 20.2594 6.58744 20.3011C7.90282 20.5565 9.16767 21.0959 10.266 21.8608C10.4186 21.9671 10.4561 22.177 10.3498 22.3296C10.2436 22.4822 10.0337 22.5197 9.88109 22.4135C8.85844 21.7012 7.68046 21.1992 6.45831 20.9621C6.29106 20.9292 6.1129 20.8997 5.93046 20.8696C5.53117 20.8038 5.10725 20.7338 4.7102 20.6127C4.11215 20.4302 3.48662 20.0928 3.11387 19.5062C2.72745 18.9065 2.69235 18.183 2.8239 17.5342C2.50816 17.4099 2.19904 17.247 1.92792 17.0139C1.13338 16.3314 0.894642 15.1077 1.32967 14.1592C1.19379 14.0569 1.06503 13.9435 0.945921 13.8169C0.0783027 12.8957 -0.0455794 11.5396 0.012035 10.3969L0.0121855 10.3939C0.0284253 10.1201 0.0529863 9.84538 0.077064 9.57587L0.0801168 9.5417C0.105322 9.2594 0.129657 8.98262 0.144683 8.70753C0.174749 8.1571 0.166309 7.63009 0.0570446 7.1231C0.0278548 6.98766 0.0846067 6.84817 0.20006 6.77157Z" fill="#1C1E4C"/>
<path d="M39.7999 6.77157C39.6845 6.69498 39.5339 6.69692 39.4205 6.77647C37.1663 8.35721 34.6777 9.59229 32.0578 10.4438C31.8019 10.5262 31.5409 10.6063 31.2772 10.6872C30.4434 10.9432 29.5831 11.2073 28.7739 11.5751L28.7716 11.5762C27.6971 12.0743 26.6549 12.803 26.0199 13.8683L26.0188 13.87C25.6104 14.5643 25.4122 15.3201 25.2769 16.074L25.2767 16.0754C25.2084 16.4653 25.1601 16.8625 25.1218 17.2458C25.1033 17.4308 25.2383 17.5958 25.4233 17.6143C25.6084 17.6328 25.7734 17.4978 25.7919 17.3128C25.8293 16.9387 25.8756 16.5597 25.9399 16.1923C26.0697 15.4695 26.2502 14.8052 26.5989 14.2121C27.1379 13.3086 28.0457 12.6552 29.0537 12.1877C29.8193 11.8398 30.6207 11.5937 31.4442 11.3407C31.7154 11.2574 31.9889 11.1734 32.2644 11.0848C34.7067 10.2911 37.0392 9.17129 39.1803 7.75483C39.1592 8.08791 39.1651 8.41906 39.1829 8.74426C39.1986 9.03261 39.224 9.32044 39.2491 9.60159L39.2518 9.6323C39.2761 9.90405 39.2998 10.1693 39.3154 10.4323C39.3713 11.5428 39.2298 12.6481 38.5638 13.3553C38.031 13.9214 37.2251 14.1768 36.3575 14.4274C35.9376 14.5491 35.5176 14.6696 35.0983 14.7899C34.5095 14.9588 33.9216 15.1275 33.3357 15.2989C33.1572 15.3511 33.0548 15.5381 33.107 15.7166C33.1592 15.8951 33.3462 15.9975 33.5247 15.9453C34.1103 15.774 34.6941 15.6065 35.2806 15.4382C35.7 15.3179 36.1207 15.1971 36.5447 15.0743C37.0378 14.9319 37.5852 14.7713 38.0907 14.5158C38.3573 15.1865 38.1744 16.0382 37.6333 16.503C37.3859 16.7157 37.0892 16.8567 36.7554 16.9714C36.7295 16.9727 36.7034 16.9771 36.6774 16.9848C36.6453 16.9943 36.6155 17.0082 36.5888 17.0257C36.4238 17.0769 36.2509 17.1239 36.0712 17.1717L36.069 17.1722C35.5436 17.3155 35.0185 17.4575 34.494 17.5994C33.7739 17.7941 33.0548 17.9885 32.3374 18.1857C32.1581 18.2349 32.0527 18.4202 32.1019 18.5996C32.1512 18.7789 32.3365 18.8843 32.5159 18.835C33.2331 18.6379 33.9487 18.4444 34.6669 18.2502C35.191 18.1085 35.7166 17.9664 36.2452 17.8222C36.3383 17.7975 36.4339 17.7721 36.5309 17.745C36.6207 18.2548 36.5689 18.7557 36.3196 19.1422L36.3182 19.1443C36.0659 19.5419 35.6123 19.8102 35.0933 19.9686C34.7382 20.0769 34.3915 20.1337 34.0184 20.1949C33.8251 20.2265 33.6248 20.2594 33.4126 20.3011C32.0972 20.5565 30.8323 21.0959 29.734 21.8608C29.5814 21.9671 29.5439 22.177 29.6502 22.3296C29.7564 22.4822 29.9663 22.5197 30.1189 22.4135C31.1416 21.7012 32.3195 21.1992 33.5417 20.9621C33.7089 20.9292 33.8871 20.8997 34.0695 20.8696C34.4688 20.8038 34.8927 20.7338 35.2898 20.6127C35.8879 20.4302 36.5134 20.0928 36.8861 19.5062C37.2725 18.9065 37.3077 18.183 37.1761 17.5342C37.4918 17.4099 37.801 17.247 38.0721 17.0139C38.8666 16.3314 39.1054 15.1077 38.6703 14.1592C38.8062 14.0569 38.935 13.9435 39.0541 13.8169C39.9217 12.8957 40.0456 11.5396 39.988 10.3969L39.9878 10.3939C39.9716 10.1201 39.947 9.84538 39.9229 9.57587L39.9199 9.5417C39.8947 9.2594 39.8703 8.98262 39.8553 8.70753C39.8253 8.1571 39.8337 7.63009 39.943 7.1231C39.9721 6.98766 39.9154 6.84817 39.7999 6.77157Z" fill="#1C1E4C"/>
<path d="M20.1544 28.4909C20.4084 28.4909 20.6363 28.4491 20.8382 28.3656C21.04 28.2786 21.2105 28.1568 21.3496 28.0003C21.4888 27.8437 21.5949 27.6541 21.668 27.4314C21.7411 27.2087 21.7776 26.9582 21.7776 26.6798V22.1704H23.3434V26.6798C23.3434 27.1391 23.2686 27.5619 23.1189 27.9481C22.9728 28.3308 22.7623 28.6614 22.4874 28.9397C22.2125 29.2181 21.8785 29.4356 21.4853 29.5921C21.0922 29.7487 20.6485 29.827 20.1544 29.827C19.6604 29.827 19.215 29.7487 18.8183 29.5921C18.4251 29.4356 18.0911 29.2181 17.8162 28.9397C17.5414 28.6614 17.3291 28.3308 17.1795 27.9481C17.0334 27.5619 16.9603 27.1391 16.9603 26.6798V22.1704H18.526V26.6798C18.526 26.9582 18.5626 27.2087 18.6357 27.4314C18.7087 27.6541 18.8148 27.8437 18.954 28.0003C19.0932 28.1568 19.2637 28.2786 19.4655 28.3656C19.6673 28.4491 19.897 28.4909 20.1544 28.4909Z" fill="#1C1E4C"/>
</svg>
