<svg width="40" height="40" viewBox="0 0 40 40" fill="none" xmlns="http://www.w3.org/2000/svg">
<path d="M33.4647 17.3858C33.1662 17.3858 32.9039 17.1958 32.8225 16.9064C32.7139 16.5265 32.5601 16.1646 32.3702 15.8209C32.2254 15.5586 32.2797 15.242 32.4878 15.0249C32.7501 14.7625 32.7501 14.3374 32.4878 14.0751L31.8998 13.4871C31.6375 13.2248 31.2123 13.2248 30.95 13.4871C30.742 13.6951 30.4163 13.7404 30.154 13.6047C29.8102 13.4147 29.4484 13.27 29.0775 13.1615C28.7971 13.08 28.5981 12.8177 28.5981 12.5192C28.5981 12.1483 28.2996 11.8498 27.9287 11.8498H27.0965C26.7257 11.8498 26.4272 12.1483 26.4272 12.5192C26.4272 12.8177 26.2372 13.08 25.9477 13.1615C25.5678 13.27 25.206 13.4238 24.8713 13.6047C24.609 13.7494 24.2924 13.6951 24.0753 13.4871C23.813 13.2248 23.3878 13.2248 23.1255 13.4871L22.5375 14.0751C22.2752 14.3374 22.2752 14.7625 22.5375 15.0249C22.7456 15.2329 22.7998 15.5586 22.6551 15.8209C22.4742 16.1646 22.3204 16.5265 22.2119 16.9064C22.1305 17.1868 21.8681 17.3858 21.5696 17.3858C21.1988 17.3858 20.9002 17.6843 20.9002 18.0551V18.8874C20.9002 19.2583 21.1988 19.5568 21.5696 19.5568C21.8681 19.5568 22.1305 19.7467 22.2119 20.0362C22.3204 20.4161 22.4742 20.7779 22.6551 21.1126C22.7998 21.3749 22.7456 21.7006 22.5375 21.9086C22.2752 22.1709 22.2752 22.5961 22.5375 22.8584L23.1255 23.4464C23.3878 23.7087 23.813 23.7087 24.0753 23.4464C24.2833 23.2383 24.609 23.1841 24.8713 23.3288C25.215 23.5097 25.5769 23.6635 25.9477 23.772C26.2282 23.8534 26.4272 24.1158 26.4272 24.4143C26.4272 24.7852 26.7257 25.0837 27.0965 25.0837H27.9287C28.2996 25.0837 28.5981 24.7852 28.5981 24.4143C28.5981 24.1158 28.7881 23.8534 29.0775 23.772C29.4575 23.6635 29.8193 23.5097 30.154 23.3288C30.4163 23.1841 30.742 23.2383 30.95 23.4464C31.2123 23.7087 31.6375 23.7087 31.8998 23.4464L32.4878 22.8584C32.7501 22.5961 32.7501 22.1709 32.4878 21.9086C32.2797 21.7006 32.2254 21.3749 32.3702 21.1126C32.5511 20.7689 32.7049 20.407 32.8225 20.0362C32.9039 19.7557 33.1662 19.5568 33.4647 19.5568C33.8356 19.5568 34.1341 19.2583 34.1341 18.8874V18.0551C34.1431 17.6933 33.8356 17.3858 33.4647 17.3858ZM27.5126 22.0081C25.5588 22.0081 23.9758 20.4251 23.9758 18.4713C23.9758 16.5174 25.5588 14.9344 27.5126 14.9344C29.4665 14.9344 31.0495 16.5174 31.0495 18.4713C31.0495 20.4251 29.4665 22.0081 27.5126 22.0081Z" fill="#1C1E4C"/>
<path fill-rule="evenodd" clip-rule="evenodd" d="M6.71205 11.877C6.71205 11.6896 6.86392 11.5378 7.05126 11.5378H16.8568C17.0441 11.5378 17.196 11.6896 17.196 11.877V16.7436C17.196 16.9309 17.0441 17.0828 16.8568 17.0828H7.05126C6.86392 17.0828 6.71205 16.9309 6.71205 16.7436V11.877ZM7.39047 12.2162V16.4044H16.5176V12.2162H7.39047Z" fill="#1C1E4C"/>
<path fill-rule="evenodd" clip-rule="evenodd" d="M6.71205 18.9778C6.71205 18.7905 6.86392 18.6386 7.05126 18.6386H16.8568C17.0441 18.6386 17.196 18.7905 17.196 18.9778C17.196 19.1652 17.0441 19.317 16.8568 19.317H7.05126C6.86392 19.317 6.71205 19.1652 6.71205 18.9778Z" fill="#1C1E4C"/>
<path fill-rule="evenodd" clip-rule="evenodd" d="M6.71205 21.5468C6.71205 21.3595 6.86392 21.2076 7.05126 21.2076H16.8568C17.0441 21.2076 17.196 21.3595 17.196 21.5468C17.196 21.7342 17.0441 21.886 16.8568 21.886H7.05126C6.86392 21.886 6.71205 21.7342 6.71205 21.5468Z" fill="#1C1E4C"/>
<path fill-rule="evenodd" clip-rule="evenodd" d="M6.71205 24.1158C6.71205 23.9284 6.86392 23.7766 7.05126 23.7766H16.8568C17.0441 23.7766 17.196 23.9284 17.196 24.1158C17.196 24.3031 17.0441 24.455 16.8568 24.455H7.05126C6.86392 24.455 6.71205 24.3031 6.71205 24.1158Z" fill="#1C1E4C"/>
<path fill-rule="evenodd" clip-rule="evenodd" d="M0 30.1673C0 29.98 0.151871 29.8281 0.339213 29.8281H39.6608C39.8481 29.8281 40 29.98 40 30.1673V31.8227C40 32.7623 39.2225 33.5369 38.2768 33.5369H1.71416C0.766972 33.5369 0 32.7699 0 31.8227V30.1673ZM0.678426 30.5065V31.8227C0.678426 32.3952 1.14167 32.8585 1.71416 32.8585H38.2768C38.8507 32.8585 39.3216 32.3847 39.3216 31.8227V30.5065H0.678426Z" fill="#1C1E4C"/>
<path fill-rule="evenodd" clip-rule="evenodd" d="M2.55094 8.1049C2.55094 7.19237 3.29232 6.4631 4.19273 6.4631H35.7983C36.7018 6.4631 37.4311 7.19544 37.4311 8.1049V30.1583C37.4311 30.3456 37.2792 30.4975 37.0919 30.4975H2.89016C2.70281 30.4975 2.55094 30.3456 2.55094 30.1583V8.1049ZM4.19273 7.14153C3.66393 7.14153 3.22937 7.57012 3.22937 8.1049V29.8191H36.7527V8.1049C36.7527 7.56704 36.3241 7.14153 35.7983 7.14153H4.19273Z" fill="#1C1E4C"/>
</svg>
