<svg width="50" height="40" viewBox="0 0 50 40" fill="none" xmlns="http://www.w3.org/2000/svg">
<path d="M22.4343 34.8685C12.8207 34.8685 5 27.0478 5 17.4342C5 7.82071 12.8207 0 22.4343 0C32.0478 0 39.8685 7.82071 39.8685 17.4342C39.8685 27.0478 32.0478 34.8685 22.4343 34.8685ZM22.4343 1.35306C13.5717 1.35306 6.35984 8.56491 6.35984 17.4275C6.35984 26.2901 13.5717 33.5019 22.4343 33.5019C31.2968 33.5019 38.5087 26.2901 38.5087 17.4275C38.5087 8.56491 31.2968 1.35306 22.4343 1.35306Z" fill="#959595"/>
<path fill-rule="evenodd" clip-rule="evenodd" d="M41.1693 24.4683C41.2168 24.3365 41.1485 24.1911 41.0167 24.1436C40.8849 24.0961 40.7395 24.1644 40.692 24.2962C38.7827 29.5899 34.5834 33.7827 29.2961 35.692C29.1643 35.7396 29.096 35.885 29.1436 36.0168C29.1912 36.1486 29.3366 36.2168 29.4684 36.1693C31.3924 35.4745 33.1761 34.4853 34.7645 33.2556L40.7851 39.2762C41.7501 40.2412 43.3112 40.2412 44.2762 39.2762C45.2413 38.3112 45.2413 36.7501 44.2762 35.7851L38.256 29.7649C39.4855 28.1772 40.4748 26.3938 41.1693 24.4683ZM37.9381 30.1645C37.1088 31.1794 36.1791 32.1088 35.1642 32.9378L41.1439 38.9174C41.9108 39.6843 43.1505 39.6843 43.9174 38.9174C44.6843 38.1505 44.6843 36.9107 43.9174 36.1439L37.9381 30.1645Z" fill="#1C1E4C"/>
<path fill-rule="evenodd" clip-rule="evenodd" d="M19.4829 9.05376C19.162 9.17057 18.8805 9.40128 18.7382 9.6914C18.6765 9.81719 18.864 9.75311 18.7382 9.6914C18.6124 9.62969 18.8381 9.38731 18.8998 9.26152C19.1092 8.83464 18.8868 8.7306 19.3099 8.57675C20.0067 8.32621 20.7679 8.52811 21.37 8.80799C21.562 8.89555 21.7444 8.98408 21.9215 9.07005C22.5564 9.37827 23.1236 9.65358 23.8227 9.73351C24.6834 9.83054 25.4637 9.73265 26.2229 9.34673C26.3478 9.28324 26.0452 9.55741 26.1087 9.68232C26.1722 9.80722 26.5777 9.73555 26.4528 9.79905C25.5884 10.2385 24.7045 10.3436 23.7657 10.2377C22.9719 10.147 22.306 9.82284 21.6598 9.50816C21.4921 9.42647 21.3256 9.34542 21.1586 9.26926L21.1569 9.26846C20.5956 9.0074 19.9899 8.87167 19.4829 9.05376Z" fill="#1C1E4C"/>
<path fill-rule="evenodd" clip-rule="evenodd" d="M25.3169 18.7702C25.4175 18.8677 25.42 19.0283 25.3225 19.1289L22.6164 21.9203C22.5189 22.0209 22.3583 22.0234 22.2577 21.9259C22.1571 21.8284 22.1546 21.6677 22.2521 21.5671L24.9581 18.7757C25.0557 18.6751 25.2163 18.6726 25.3169 18.7702Z" fill="#1C1E4C"/>
<path d="M19.546 19.1289C19.4485 19.0283 19.451 18.8677 19.5516 18.7702C19.6522 18.6726 19.8128 18.6751 19.9104 18.7757L22.6161 21.5668C22.6178 21.5686 22.6198 21.5707 22.6215 21.5725C22.6648 21.6199 22.6869 21.6796 22.6879 21.7395C22.6879 21.741 22.6879 21.7424 22.6879 21.7439V23.6245C22.6879 23.7646 22.5744 23.8782 22.4342 23.8782C22.2941 23.8782 22.1805 23.7646 22.1805 23.6245V21.8465" fill="#1C1E4C"/>
<path d="M22.6215 21.5725C22.6619 21.6167 22.6869 21.6752 22.6879 21.7395Z" fill="#1C1E4C"/>
<path fill-rule="evenodd" clip-rule="evenodd" d="M26.5173 11.6128C26.4417 11.7307 26.476 11.8876 26.594 11.9632C26.8488 12.1265 26.9828 12.2773 27.0654 12.4437C27.1505 12.6153 27.1926 12.8256 27.2232 13.1346C27.221 13.4611 27.1317 13.7422 26.9971 13.9411C26.8609 14.1422 26.6883 14.2481 26.5141 14.2636C26.4075 14.273 26.3182 14.3484 26.2911 14.452C26.0061 15.5402 25.4124 16.4642 24.6223 17.0759C24.5521 17.1302 24.5154 17.2172 24.5255 17.3054L24.6607 18.4875C24.6896 18.7546 24.8402 18.9867 25.0485 19.133C25.1321 19.1949 25.2211 19.2325 25.3068 19.2582L25.309 19.2589L28.2925 20.1248C28.2972 20.1262 28.302 20.1274 28.3068 20.1285C28.6469 20.2061 29.0103 20.3878 29.3702 20.6909L29.3712 20.6917C29.937 21.1632 30.3311 21.8157 30.4684 22.5271L30.4688 22.529L31.1724 26.0334C31.2 26.1708 31.3337 26.2598 31.4711 26.2322C31.6085 26.2047 31.6975 26.0709 31.6699 25.9336L30.9666 22.431C30.8061 21.6005 30.348 20.8454 29.6965 20.3023C29.2876 19.9582 28.8555 19.7347 28.427 19.6355L25.4526 18.7722L25.4516 18.7719C25.4038 18.7575 25.3726 18.7419 25.3492 18.7243L25.342 18.7189C25.2412 18.6488 25.1769 18.5433 25.1652 18.4334L25.165 18.4317L25.0455 17.3871C25.8373 16.7336 26.4281 15.8053 26.7388 14.7368C27.0185 14.6607 27.2512 14.4708 27.4172 14.2255C27.6176 13.9296 27.7306 13.5419 27.7306 13.1226C27.7306 13.1144 27.7302 13.1062 27.7294 13.0981C27.6976 12.7709 27.6495 12.4793 27.5199 12.2181C27.3865 11.9494 27.1787 11.7353 26.8678 11.536C26.7498 11.4604 26.5929 11.4948 26.5173 11.6128Z" fill="#1C1E4C"/>
<path fill-rule="evenodd" clip-rule="evenodd" d="M18.3785 11.6128C18.4541 11.7307 18.4197 11.8876 18.3017 11.9632C18.047 12.1265 17.913 12.2773 17.8304 12.4437C17.7452 12.6153 17.7032 12.8256 17.6725 13.1346C17.6747 13.4611 17.7641 13.7422 17.8987 13.9411C18.0348 14.1422 18.2074 14.2481 18.3816 14.2636C18.4883 14.273 18.5775 14.3484 18.6046 14.452C18.8896 15.5402 19.4834 16.4642 20.2735 17.0759C20.3436 17.1302 20.3803 17.2172 20.3702 17.3054L20.2351 18.4875C20.2061 18.7546 20.0555 18.9867 19.8472 19.133C19.7636 19.1949 19.6746 19.2325 19.5889 19.2582L19.5868 19.2589L16.6032 20.1248C16.5985 20.1262 16.5937 20.1274 16.5889 20.1285C16.2488 20.2061 15.8854 20.3878 15.5255 20.6909L15.5245 20.6917C14.9588 21.1632 14.5646 21.8157 14.4273 22.5271L14.4269 22.529L13.7233 26.0334C13.6957 26.1708 13.562 26.2598 13.4246 26.2322C13.2873 26.2047 13.1983 26.0709 13.2258 25.9336L13.9291 22.431C14.0896 21.6005 14.5478 20.8454 15.1992 20.3023C15.6081 19.9582 16.0402 19.7347 16.4687 19.6355L19.4431 18.7722L19.4441 18.7719C19.4919 18.7575 19.5231 18.7419 19.5465 18.7243L19.5538 18.7189C19.6545 18.6488 19.7188 18.5433 19.7306 18.4334L19.7307 18.4317L19.8502 17.3871C19.0584 16.7336 18.4676 15.8053 18.157 14.7368C17.8772 14.6607 17.6445 14.4708 17.4785 14.2255C17.2782 13.9296 17.1651 13.5419 17.1651 13.1226C17.1651 13.1144 17.1655 13.1062 17.1663 13.0981C17.1981 12.7709 17.2462 12.4793 17.3759 12.2181C17.5092 11.9494 17.717 11.7353 18.028 11.536C18.146 11.4604 18.3029 11.4948 18.3785 11.6128Z" fill="#1C1E4C"/>
<path fill-rule="evenodd" clip-rule="evenodd" d="M18.4561 11.5893L18.456 11.5874L18.4558 11.5789C18.4556 11.5709 18.4554 11.5586 18.4553 11.5421C18.4551 11.5092 18.4553 11.4598 18.4571 11.3963C18.4608 11.2693 18.4707 11.0865 18.4959 10.8665C18.5465 10.4251 18.6581 9.84146 18.8998 9.26152C19.1413 8.68202 19.5089 8.11489 20.0674 7.69265C20.623 7.27264 21.384 6.98323 22.437 6.98323C23.4897 6.98323 24.2487 7.27386 24.8017 7.69549C25.3576 8.11941 25.7222 8.68894 25.9606 9.27118C26.1992 9.85383 26.3077 10.4403 26.356 10.8838C26.3801 11.1048 26.389 11.2886 26.392 11.4162C26.3935 11.48 26.3934 11.5296 26.393 11.5627C26.3929 11.5793 26.3926 11.5917 26.3924 11.5997L26.3921 11.6083L26.3921 11.61C26.3863 11.75 26.4951 11.8682 26.635 11.874C26.775 11.8798 26.8932 11.771 26.899 11.631L26.6455 11.6205C26.899 11.631 26.899 11.631 26.899 11.631L26.8991 11.6292L26.8992 11.6257L26.8996 11.6133C26.8999 11.6028 26.9002 11.5877 26.9004 11.5685C26.9009 11.53 26.9009 11.4745 26.8993 11.4045C26.896 11.2647 26.8863 11.0663 26.8605 10.8288C26.8089 10.3553 26.6923 9.71899 26.4302 9.07888C26.1679 8.43837 25.756 7.78515 25.1093 7.29201C24.4596 6.79657 23.5898 6.47583 22.437 6.47583C21.2844 6.47583 20.4134 6.79502 19.7614 7.28791C19.1124 7.77857 18.6972 8.42864 18.4314 9.06634C18.1659 9.7036 18.0459 10.3371 17.9918 10.8087C17.9647 11.0451 17.9539 11.2426 17.9499 11.3819C17.948 11.4516 17.9477 11.5068 17.9479 11.5452C17.948 11.5644 17.9483 11.5794 17.9485 11.5899L17.9488 11.6022L17.9489 11.6057L17.949 11.6069C17.949 11.6069 17.949 11.6075 18.2025 11.5983L17.949 11.6069C17.954 11.7469 18.0717 11.8569 18.2117 11.8519C18.3517 11.8468 18.461 11.7293 18.4561 11.5893Z" fill="#1C1E4C"/>
</svg>
