<svg width="44" height="40" viewBox="0 0 44 40" fill="none" xmlns="http://www.w3.org/2000/svg">
<path d="M13.703 15.3913C13.7792 12.773 15.407 10.3971 17.8868 9.56593C19.5908 8.99794 21.8213 9.08106 24.585 10.8197L24.5019 10.4526C23.5945 6.43504 19.5839 3.89984 15.5594 4.80725C11.5419 5.71465 9.00672 9.72525 9.91412 13.7497L11.2856 19.8106C11.6319 21.3553 11.8398 22.8861 11.9021 24.3961C11.916 24.3961 13.5645 20.1015 13.703 15.3913Z" fill="#959595"/>
<path fill-rule="evenodd" clip-rule="evenodd" d="M14.4983 0.0721195C16.0927 -0.284716 17.6787 0.717302 18.043 2.31112C18.0593 2.38236 18.0446 2.45346 18.0078 2.5103C22.0854 2.8449 25.6525 5.77837 26.6047 9.97943L27.9762 16.0404C28.5588 18.6314 29.5589 21.1235 31.0085 23.3459C31.8145 24.5716 32.7702 25.7586 33.8283 26.5498L35.1068 26.2595C36.6144 25.9171 38.1141 26.8618 38.4564 28.3694C38.7988 29.877 37.8542 31.3767 36.3466 31.719L27.534 33.7203C28.0577 36.5106 26.2895 39.2354 23.4967 39.8695C20.7133 40.496 17.9435 38.8058 17.2141 36.0638L8.41977 38.0609C6.91217 38.4032 5.41247 37.4586 5.07011 35.951C4.72775 34.4434 5.67237 32.9437 7.17998 32.6013L8.43037 32.3174C9.05182 31.1442 9.41401 29.6523 9.60824 28.1922C9.9638 25.5666 9.79331 22.889 9.20367 20.2905L7.83217 14.2295C6.87949 10.0262 8.83952 5.84171 12.379 3.78374C12.3197 3.74849 12.2744 3.6898 12.2582 3.61713C11.9013 2.02276 12.9034 0.43668 14.4972 0.0723791L14.4983 0.0721195ZM9.08299 32.1692L14.5849 30.9198C14.7319 30.8864 14.8781 30.9785 14.9115 31.1255C14.9449 31.2725 14.8528 31.4187 14.7058 31.4521L7.30086 33.1336C6.08723 33.4092 5.32681 34.6165 5.60241 35.8301C5.87801 37.0438 7.08527 37.8042 8.29889 37.5286L36.2257 31.1867C37.4393 30.9111 38.1997 29.7039 37.9241 28.4902C37.6485 27.2766 36.4413 26.5162 35.2276 26.7918L27.9945 28.4344C27.8475 28.4677 27.7013 28.3756 27.6679 28.2287C27.6345 28.0817 27.7266 27.9354 27.8736 27.9021L33.1784 26.6974C32.1883 25.8693 31.3103 24.7504 30.5744 23.6313C29.0874 21.3517 28.0643 18.8003 27.4695 16.1551L26.098 10.0943C25.0091 5.28966 20.3049 2.23788 15.5031 3.16306C15.4049 3.182 15.3066 3.2026 15.2083 3.22488C10.3053 4.33612 7.22766 9.2121 8.33883 14.1147L9.7103 20.1755C10.312 22.8274 10.4879 25.5671 10.1232 28.2611C9.94543 29.597 9.62638 30.9923 9.08299 32.1692ZM17.5366 2.42688C17.5412 2.44709 17.5481 2.4662 17.5569 2.48402C16.7472 2.45605 15.9207 2.53073 15.0934 2.71822C14.267 2.90554 13.4896 3.19406 12.7713 3.56776C12.7719 3.54668 12.7699 3.52519 12.7651 3.50367C12.4709 2.18899 13.2973 0.87987 14.6124 0.578955C15.9271 0.285047 17.236 1.11165 17.5366 2.42688ZM17.7211 35.9487L27.027 33.8354C27.4876 36.3462 25.8942 38.7923 23.3819 39.3629C20.8781 39.9262 18.3866 38.4111 17.7211 35.9487Z" fill="#1C1E4C"/>
</svg>
