<svg width="64" height="40" viewBox="0 0 64 40" fill="none" xmlns="http://www.w3.org/2000/svg">
<path d="M19.2219 18.3273V16.3127L51.9419 7.94909V18.3273H19.2219Z" fill="#959595"/>
<path fill-rule="evenodd" clip-rule="evenodd" d="M54.1928 4.49364V3.88362C54.1928 2.65664 55.1876 1.6618 56.4146 1.6618C57.6416 1.6618 58.6364 2.65664 58.6364 3.88362V36.1163C58.6364 37.3433 57.6416 38.3382 56.4146 38.3382C55.1876 38.3382 54.1928 37.3433 54.1928 36.1163V35.5064L38.3455 31.4591V34.9164C38.3455 36.3313 37.2063 37.48 35.7891 37.48H27.0473C25.6379 37.48 24.4909 36.3319 24.4909 34.9164V27.9208L16.6379 25.9152C16.5974 25.9048 16.5609 25.8856 16.5304 25.86L9.93288 26.8996C9.6049 27.915 8.65092 28.6509 7.52728 28.6509C6.13302 28.6509 5 27.5179 5 26.1236V13.7818C5 12.3875 6.13302 11.2545 7.52728 11.2545C8.65375 11.2545 9.6097 11.9941 9.93535 13.0135L16.6924 14.0782L54.1928 4.49364ZM54.7383 3.88362C54.7383 2.95788 55.4889 2.20726 56.4146 2.20726C57.3404 2.20726 58.091 2.95788 58.091 3.88362V36.1163C58.091 37.0421 57.3404 37.7927 56.4146 37.7927C55.4889 37.7927 54.7383 37.0421 54.7383 36.1163V29.7454C54.7383 29.5948 54.6162 29.4727 54.4656 29.4727C54.3149 29.4727 54.1928 29.5948 54.1928 29.7454V34.9434L16.9782 25.4391V14.5682L54.1928 5.05663V20C54.1928 20.1506 54.3149 20.2727 54.4656 20.2727C54.6162 20.2727 54.7383 20.1506 54.7383 20V3.88362ZM25.0364 28.0601L37.8102 31.3224C37.8036 31.3459 37.8 31.3707 37.8 31.3964V34.9164C37.8 36.0323 36.9028 36.9345 35.7891 36.9345H27.0473C25.9403 36.9345 25.0364 36.0318 25.0364 34.9164V28.0601ZM10.0468 13.5833C10.052 13.6488 10.0546 13.715 10.0546 13.7818V16.7345C10.0546 16.8852 9.93245 17.0073 9.78183 17.0073C9.6312 17.0073 9.5091 16.8852 9.5091 16.7345V13.7818C9.5091 12.6888 8.62029 11.8 7.52728 11.8C6.43426 11.8 5.54545 12.6888 5.54545 13.7818V26.1236C5.54545 27.2166 6.43426 28.1054 7.52728 28.1054C8.62029 28.1054 9.5091 27.2166 9.5091 26.1236C9.5091 25.973 9.6312 25.8509 9.78183 25.8509C9.93245 25.8509 10.0546 25.973 10.0546 26.1236C10.0546 26.1929 10.0518 26.2616 10.0463 26.3295L16.4327 25.3232V14.5895L10.0468 13.5833Z" fill="#1C1E4C"/>
</svg>
