<svg width="40" height="40" viewBox="0 0 40 40" fill="none" xmlns="http://www.w3.org/2000/svg">
<path fill-rule="evenodd" clip-rule="evenodd" d="M23.3433 9.07668C23.409 8.81481 23.6757 8.65559 23.9388 8.72106C25.0837 9.0059 25.7645 10.2752 25.7645 11.6064C25.7645 12.3515 25.5575 13.0432 25.1942 13.5718C24.8984 14.0021 24.485 14.3406 23.9886 14.4804C23.4396 16.3448 22.4006 17.9639 21.013 19.1159L21.23 20.9346C21.2528 21.1319 21.3577 21.3001 21.5067 21.4014C21.5796 21.4462 21.6451 21.478 21.7144 21.5017L25.1747 22.5024C25.4351 22.5777 25.5849 22.8489 25.5092 23.1081C25.4336 23.3673 25.1611 23.5164 24.9006 23.4411L21.4301 22.4375L21.4119 22.4318C21.2505 22.3783 21.1106 22.3077 20.9795 22.2262L20.9672 22.2186C20.5693 21.9546 20.31 21.5251 20.2543 21.0475L20.0056 18.9628C19.9853 18.7929 20.0558 18.6247 20.1915 18.5196C21.5785 17.4446 22.6228 15.8331 23.1219 13.9331C23.1746 13.7325 23.3487 13.5869 23.5563 13.5697C23.846 13.5456 24.144 13.3684 24.3835 13.0199C24.6226 12.6721 24.7823 12.1777 24.7823 11.6064C24.7823 10.5133 24.232 9.80162 23.7006 9.66939C23.4375 9.60392 23.2775 9.33855 23.3433 9.07668Z" fill="#1C1E4C"/>
<path fill-rule="evenodd" clip-rule="evenodd" d="M9.3617 9.0849C9.43732 9.34413 9.28747 9.61528 9.02699 9.69055C8.50218 9.84218 7.96679 10.5454 7.96679 11.6194C7.96679 12.8168 8.60873 13.5273 9.18642 13.5832C9.39127 13.6031 9.56198 13.7479 9.61403 13.9461C10.1132 15.8461 11.1574 17.4575 12.5444 18.5325C12.6801 18.6377 12.7507 18.8058 12.7304 18.9758L12.4817 21.0596C12.4249 21.5466 12.1597 21.9537 11.7817 22.2224C11.7734 22.2283 11.7651 22.2338 11.7565 22.2392C11.632 22.3166 11.4789 22.3973 11.2925 22.4412L6.02796 23.9623C6.01631 23.9657 6.00455 23.9686 5.99268 23.9711C5.40804 24.0942 4.7727 24.4143 4.13906 24.9479L4.13311 24.9529C3.13599 25.7659 2.46122 26.9034 2.20798 28.1508L1.02344 34.0827H21.2398C21.511 34.0827 21.7309 34.3016 21.7309 34.5715C21.7309 34.8414 21.511 35.0603 21.2398 35.0603H0.796614C0.588635 35.0603 0.355104 34.9781 0.195032 34.7937C-0.00610594 34.5787 -0.014273 34.3142 0.00923056 34.1505C0.0104873 34.1417 0.0119825 34.133 0.0137146 34.1243L1.24476 27.9594L1.24506 27.958C1.54171 26.4959 2.33258 25.1584 3.50757 24.1992C4.22934 23.592 5.00081 23.1847 5.77101 23.0187L11.0319 21.4987C11.0419 21.4958 11.0521 21.4932 11.0623 21.4909C11.1015 21.4823 11.149 21.4631 11.2225 21.4185C11.3871 21.2972 11.4844 21.1335 11.506 20.9476L11.5062 20.9459L11.723 19.1289C10.3349 17.9765 9.29565 16.3566 8.74674 14.4914C7.64432 14.1786 6.98457 12.924 6.98457 11.6194C6.98457 10.2952 7.65402 9.06936 8.75314 8.75179C9.01362 8.67653 9.28608 8.82567 9.3617 9.0849Z" fill="#1C1E4C"/>
<path fill-rule="evenodd" clip-rule="evenodd" d="M11.5854 1.46547C12.7512 0.575042 14.3126 0 16.3809 0C18.446 0 20.0028 0.574242 21.1634 1.46396C22.318 2.34909 23.0473 3.52068 23.5078 4.66699C23.9681 5.81255 24.1674 6.95063 24.2528 7.79692C24.2956 8.22144 24.3101 8.57608 24.3138 8.82624C24.3157 8.9514 24.3149 9.05066 24.3135 9.1197C24.3129 9.15423 24.3121 9.18123 24.3114 9.20016L24.3105 9.22244L24.3103 9.22892L24.3102 9.23098C24.3102 9.23098 24.3101 9.23223 23.8196 9.20815L24.3102 9.23098C24.2968 9.50058 24.0663 9.70962 23.7954 9.69632C23.5246 9.68303 23.3159 9.45392 23.3291 9.18449L23.3292 9.18123L23.3298 9.16612C23.3303 9.15206 23.3309 9.13009 23.3315 9.10076C23.3326 9.04208 23.3334 8.954 23.3317 8.84074C23.3284 8.61406 23.3151 8.28749 23.2755 7.89457C23.1959 7.10598 23.0114 6.06421 22.5958 5.02992C22.1806 3.99639 21.5421 2.98813 20.564 2.23837C19.592 1.4932 18.2513 0.977519 16.3809 0.977519C14.5073 0.977519 13.1613 1.49403 12.1834 2.24094C11.1996 2.9924 10.5551 4.00284 10.1342 5.03825C9.71313 6.0744 9.52345 7.11795 9.44014 7.90778C9.39863 8.30133 9.38388 8.62842 9.37945 8.85546C9.37724 8.96889 9.37761 9.05711 9.37849 9.11588C9.37893 9.14526 9.37949 9.16726 9.37992 9.18135L9.38043 9.19648L9.38054 9.19934C9.39249 9.46886 9.18274 9.6974 8.91189 9.70947C8.64093 9.72154 8.41144 9.51273 8.39931 9.24306L8.88992 9.2212C8.39931 9.24306 8.39931 9.24306 8.39931 9.24306L8.39916 9.23975L8.39891 9.23326L8.39815 9.21094C8.39758 9.19199 8.3969 9.16495 8.39638 9.13037C8.39535 9.06123 8.39498 8.96184 8.39742 8.8365C8.40231 8.58598 8.41845 8.23084 8.4633 7.80573C8.55269 6.95822 8.75754 5.81866 9.22369 4.67171C9.69014 3.52401 10.4256 2.35134 11.5854 1.46547Z" fill="#1C1E4C"/>
<path fill-rule="evenodd" clip-rule="evenodd" d="M14.1082 4.96085C13.1045 4.50571 12.0663 4.26165 11.1805 4.58418L11.1781 4.58505C10.6232 4.78386 10.1325 5.18805 9.89618 5.67879C9.77898 5.92223 9.48568 6.02501 9.24108 5.90836C8.99647 5.79172 8.8932 5.49982 9.0104 5.25639C9.37636 4.49631 10.0899 3.93629 10.8442 3.66573C12.1058 3.20694 13.4505 3.58833 14.5156 4.07141C14.8506 4.22348 15.169 4.37685 15.4776 4.52554C16.6058 5.06911 17.606 5.551 18.8307 5.68554C20.356 5.84718 21.7096 5.6836 23.047 5.00601C23.2887 4.88355 23.5844 4.97928 23.7074 5.21984C23.8305 5.46039 23.7343 5.75468 23.4926 5.87714C21.9491 6.65918 20.3955 6.83454 18.7257 6.65746L18.724 6.65727C17.3141 6.5026 16.1227 5.92647 14.9741 5.37104C14.6836 5.2306 14.396 5.09149 14.1082 4.96085Z" fill="#1C1E4C"/>
<path fill-rule="evenodd" clip-rule="evenodd" d="M11.1687 21.4728C11.364 21.2855 11.6749 21.2912 11.8631 21.4856L16.7218 26.5035C16.91 26.6979 16.9042 27.0073 16.7089 27.1946C16.5136 27.3819 16.2027 27.3762 16.0145 27.1818L11.1558 22.1639C10.9676 21.9695 10.9734 21.6601 11.1687 21.4728Z" fill="#1C1E4C"/>
<path fill-rule="evenodd" clip-rule="evenodd" d="M21.5811 21.4732C21.7762 21.6608 21.7815 21.9702 21.5931 22.1644L16.7213 27.1823C16.5328 27.3764 16.2219 27.3817 16.0268 27.1941C15.8318 27.0066 15.8264 26.6971 16.0149 26.503L20.8867 21.4851C21.0752 21.291 21.3861 21.2857 21.5811 21.4732Z" fill="#1C1E4C"/>
<path fill-rule="evenodd" clip-rule="evenodd" d="M22.6475 31.3652C22.6475 26.5987 26.5343 22.7305 31.3238 22.7305C36.1132 22.7305 40 26.5987 40 31.3652C40 36.1325 36.1258 39.9862 31.3252 40L31.3238 40C26.5343 40 22.6475 36.1318 22.6475 31.3652ZM31.3238 23.708C27.0768 23.708 23.6298 27.1386 23.6298 31.3652C23.6298 35.5917 27.0765 39.0222 31.3232 39.0225C35.5848 39.0098 39.0178 35.5908 39.0178 31.3652C39.0178 27.1386 35.5707 23.708 31.3238 23.708Z" fill="#1C1E4C"/>
<path d="M30.4201 35.4709C30.4201 35.9662 30.8392 36.3702 31.3368 36.3702C31.8345 36.3702 32.2405 35.9531 32.2405 35.4709V32.2646H35.4492C35.9599 32.2646 36.3659 31.8605 36.3528 31.3653C36.3528 30.857 35.9468 30.453 35.4492 30.453H32.2405V27.2728C32.2405 26.7645 31.8345 26.3604 31.3368 26.3604C30.8261 26.3604 30.4201 26.7775 30.4201 27.2728V30.453H27.2117C26.7009 30.453 26.2949 30.87 26.2949 31.3653C26.2949 31.8605 26.714 32.2646 27.2117 32.2646H30.4201V35.4709Z" fill="#959595"/>
</svg>
