<svg width="57" height="40" viewBox="0 0 57 40" fill="none" xmlns="http://www.w3.org/2000/svg">
<path d="M37.6947 8.43126H8.63795V14.1333H37.6947V8.43126Z" fill="#959595"/>
<path fill-rule="evenodd" clip-rule="evenodd" d="M17.1811 18.9926C17.1811 18.8562 17.2916 18.7457 17.428 18.7457H28.9045C29.0409 18.7457 29.1514 18.8562 29.1514 18.9926C29.1514 19.1289 29.0409 19.2395 28.9045 19.2395H17.428C17.2916 19.2395 17.1811 19.1289 17.1811 18.9926Z" fill="#1C1E4C"/>
<path fill-rule="evenodd" clip-rule="evenodd" d="M17.1811 22.7654C17.1811 22.6291 17.2916 22.5185 17.428 22.5185H28.9045C29.0409 22.5185 29.1514 22.6291 29.1514 22.7654C29.1514 22.9018 29.0409 23.0123 28.9045 23.0123H17.428C17.2916 23.0123 17.1811 22.9018 17.1811 22.7654Z" fill="#1C1E4C"/>
<path fill-rule="evenodd" clip-rule="evenodd" d="M5 0.246913C5 0.110547 5.11055 0 5.24691 0H41.4214C41.5577 0 41.6683 0.110547 41.6683 0.246913V6.49217H47.9135C48.0499 6.49217 48.1604 6.60271 48.1604 6.73908V29.4627L51.1446 30.2636C51.2298 30.2865 51.2963 30.353 51.3191 30.4382C51.3419 30.5234 51.3175 30.6143 51.2552 30.6767L48.2988 33.633C48.2024 33.7295 48.046 33.7295 47.9496 33.633C47.8532 33.5366 47.8532 33.3803 47.9496 33.2838L50.6037 30.6297L47.8654 29.8949C47.8545 29.8927 47.8439 29.8898 47.8336 29.8863L41.4034 28.1607C41.3713 28.1584 41.3409 28.1499 41.3134 28.1365L38.7943 27.4605L41.2149 36.5022C41.2177 36.5109 41.2201 36.5197 41.222 36.5287L41.9573 39.2755L44.6112 36.6157C44.7075 36.5192 44.8638 36.519 44.9603 36.6153C45.0569 36.7117 45.057 36.868 44.9607 36.9645L42.0044 39.9275C41.942 39.99 41.851 40.0144 41.7658 39.9916C41.6805 39.9688 41.6139 39.9022 41.5911 39.8169L40.7904 36.8263H11.7326C11.5962 36.8263 11.4857 36.7158 11.4857 36.5794V30.3407H5.24691C5.11055 30.3407 5 30.2302 5 30.0938V0.246913ZM40.6582 36.3325L39.0542 30.3407H11.9795V36.3325H40.6582ZM38.922 29.8469L38.2067 27.175C38.1839 27.0898 38.2083 26.9988 38.2707 26.9365C38.3331 26.8741 38.424 26.8498 38.5092 26.8727L41.1745 27.5879V6.74358L41.1744 6.73908L41.1745 6.73458V5.01728H5.51172C5.5057 5.01728 5.49974 5.01706 5.49383 5.01663V29.8469H38.922ZM41.6683 27.7205L47.6666 29.3302V6.98599H41.6683V27.7205ZM41.1745 0.493827V4.52345H5.51172C5.5057 4.52345 5.49974 4.52367 5.49383 4.5241V0.493827H41.1745Z" fill="#1C1E4C"/>
<path fill-rule="evenodd" clip-rule="evenodd" d="M47.0608 35.7332C47.1572 35.6368 47.3135 35.6368 47.41 35.7332L51.1104 39.4336C51.2068 39.53 51.2068 39.6864 51.1104 39.7828C51.014 39.8792 50.8576 39.8792 50.7612 39.7828L47.0608 36.0824C46.9644 35.986 46.9644 35.8296 47.0608 35.7332Z" fill="#1C1E4C"/>
</svg>
